<svg xmlns="http://www.w3.org/2000/svg" xmlns:xlink="http://www.w3.org/1999/xlink" width="500" zoomAndPan="magnify" viewBox="0 0 375 374.999991" height="500" preserveAspectRatio="xMidYMid meet" version="1.0"><defs><g/><clipPath id="1de4a665f1"><path d="M 65.441406 65.441406 L 309.558594 65.441406 L 309.558594 309.558594 L 65.441406 309.558594 Z M 65.441406 65.441406 " clip-rule="nonzero"/></clipPath><clipPath id="4b85a5bf0e"><path d="M 187.5 65.441406 C 120.089844 65.441406 65.441406 120.089844 65.441406 187.5 C 65.441406 254.910156 120.089844 309.558594 187.5 309.558594 C 254.910156 309.558594 309.558594 254.910156 309.558594 187.5 C 309.558594 120.089844 254.910156 65.441406 187.5 65.441406 Z M 187.5 65.441406 " clip-rule="nonzero"/></clipPath><clipPath id="6b0ffd54f2"><path d="M 4.878906 5.445312 L 25.019531 5.445312 L 25.019531 23.882812 L 4.878906 23.882812 Z M 4.878906 5.445312 " clip-rule="nonzero"/></clipPath><clipPath id="52ca5d9da3"><path d="M 4.878906 28.328125 L 25.019531 28.328125 L 25.019531 46.765625 L 4.878906 46.765625 Z M 4.878906 28.328125 " clip-rule="nonzero"/></clipPath><clipPath id="f353dda866"><path d="M 4.878906 51.210938 L 25.019531 51.210938 L 25.019531 69.648438 L 4.878906 69.648438 Z M 4.878906 51.210938 " clip-rule="nonzero"/></clipPath><clipPath id="27acfaae2b"><path d="M 4.878906 74.09375 L 25.019531 74.09375 L 25.019531 92.53125 L 4.878906 92.53125 Z M 4.878906 74.09375 " clip-rule="nonzero"/></clipPath><clipPath id="1867999eb6"><path d="M 4.878906 96.976562 L 25.019531 96.976562 L 25.019531 115.414062 L 4.878906 115.414062 Z M 4.878906 96.976562 " clip-rule="nonzero"/></clipPath><clipPath id="cf15206e8c"><path d="M 4.878906 119.859375 L 25.019531 119.859375 L 25.019531 138.296875 L 4.878906 138.296875 Z M 4.878906 119.859375 " clip-rule="nonzero"/></clipPath><clipPath id="0eb6e6e506"><path d="M 4.878906 142.742188 L 25.019531 142.742188 L 25.019531 161.183594 L 4.878906 161.183594 Z M 4.878906 142.742188 " clip-rule="nonzero"/></clipPath><clipPath id="4346201b46"><path d="M 4.878906 165.625 L 25.019531 165.625 L 25.019531 184.066406 L 4.878906 184.066406 Z M 4.878906 165.625 " clip-rule="nonzero"/></clipPath><clipPath id="98bdb01d4b"><path d="M 4.878906 188.507812 L 25.019531 188.507812 L 25.019531 206.949219 L 4.878906 206.949219 Z M 4.878906 188.507812 " clip-rule="nonzero"/></clipPath><clipPath id="1c3894f7a2"><path d="M 4.878906 211.390625 L 25.019531 211.390625 L 25.019531 229.832031 L 4.878906 229.832031 Z M 4.878906 211.390625 " clip-rule="nonzero"/></clipPath><clipPath id="36b7550e95"><path d="M 4.878906 234.273438 L 25.019531 234.273438 L 25.019531 252.714844 L 4.878906 252.714844 Z M 4.878906 234.273438 " clip-rule="nonzero"/></clipPath><clipPath id="784ba31236"><path d="M 4.878906 257.160156 L 25.019531 257.160156 L 25.019531 275.597656 L 4.878906 275.597656 Z M 4.878906 257.160156 " clip-rule="nonzero"/></clipPath><clipPath id="5456992da3"><path d="M 4.878906 280.042969 L 25.019531 280.042969 L 25.019531 298.480469 L 4.878906 298.480469 Z M 4.878906 280.042969 " clip-rule="nonzero"/></clipPath><clipPath id="e7893ec3db"><path d="M 4.878906 302.925781 L 25.019531 302.925781 L 25.019531 321.363281 L 4.878906 321.363281 Z M 4.878906 302.925781 " clip-rule="nonzero"/></clipPath><clipPath id="881f575377"><path d="M 4.878906 325.808594 L 25.019531 325.808594 L 25.019531 344.246094 L 4.878906 344.246094 Z M 4.878906 325.808594 " clip-rule="nonzero"/></clipPath><clipPath id="1cc66c23db"><path d="M 4.878906 348.691406 L 25.019531 348.691406 L 25.019531 367.128906 L 4.878906 367.128906 Z M 4.878906 348.691406 " clip-rule="nonzero"/></clipPath><clipPath id="429ee66790"><path d="M 350.058594 5.445312 L 370.199219 5.445312 L 370.199219 23.882812 L 350.058594 23.882812 Z M 350.058594 5.445312 " clip-rule="nonzero"/></clipPath><clipPath id="d10b077214"><path d="M 350.058594 28.28125 L 370.199219 28.28125 L 370.199219 46.71875 L 350.058594 46.71875 Z M 350.058594 28.28125 " clip-rule="nonzero"/></clipPath><clipPath id="2da5976ac7"><path d="M 350.058594 51.21875 L 370.199219 51.21875 L 370.199219 69.65625 L 350.058594 69.65625 Z M 350.058594 51.21875 " clip-rule="nonzero"/></clipPath><clipPath id="e7f980a1a7"><path d="M 350.058594 74.054688 L 370.199219 74.054688 L 370.199219 92.492188 L 350.058594 92.492188 Z M 350.058594 74.054688 " clip-rule="nonzero"/></clipPath><clipPath id="41cd38b8e8"><path d="M 350.058594 96.992188 L 370.199219 96.992188 L 370.199219 115.429688 L 350.058594 115.429688 Z M 350.058594 96.992188 " clip-rule="nonzero"/></clipPath><clipPath id="8e65ee4376"><path d="M 350.058594 119.828125 L 370.199219 119.828125 L 370.199219 138.265625 L 350.058594 138.265625 Z M 350.058594 119.828125 " clip-rule="nonzero"/></clipPath><clipPath id="b8b8446d2c"><path d="M 350.058594 142.765625 L 370.199219 142.765625 L 370.199219 161.203125 L 350.058594 161.203125 Z M 350.058594 142.765625 " clip-rule="nonzero"/></clipPath><clipPath id="b71075b325"><path d="M 350.058594 165.597656 L 370.199219 165.597656 L 370.199219 184.035156 L 350.058594 184.035156 Z M 350.058594 165.597656 " clip-rule="nonzero"/></clipPath><clipPath id="837b6331c3"><path d="M 350.058594 188.535156 L 370.199219 188.535156 L 370.199219 206.976562 L 350.058594 206.976562 Z M 350.058594 188.535156 " clip-rule="nonzero"/></clipPath><clipPath id="e1bfe0ad68"><path d="M 350.058594 211.371094 L 370.199219 211.371094 L 370.199219 229.808594 L 350.058594 229.808594 Z M 350.058594 211.371094 " clip-rule="nonzero"/></clipPath><clipPath id="60212d7bc3"><path d="M 350.058594 234.308594 L 370.199219 234.308594 L 370.199219 252.746094 L 350.058594 252.746094 Z M 350.058594 234.308594 " clip-rule="nonzero"/></clipPath><clipPath id="3a52866952"><path d="M 350.058594 257.144531 L 370.199219 257.144531 L 370.199219 275.582031 L 350.058594 275.582031 Z M 350.058594 257.144531 " clip-rule="nonzero"/></clipPath><clipPath id="3b1f7a3ebb"><path d="M 350.058594 280.082031 L 370.199219 280.082031 L 370.199219 298.519531 L 350.058594 298.519531 Z M 350.058594 280.082031 " clip-rule="nonzero"/></clipPath><clipPath id="35640fd115"><path d="M 350.058594 302.917969 L 370.199219 302.917969 L 370.199219 321.355469 L 350.058594 321.355469 Z M 350.058594 302.917969 " clip-rule="nonzero"/></clipPath><clipPath id="a2c2c2a9e6"><path d="M 350.058594 325.855469 L 370.199219 325.855469 L 370.199219 344.292969 L 350.058594 344.292969 Z M 350.058594 325.855469 " clip-rule="nonzero"/></clipPath><clipPath id="a3ebd65d27"><path d="M 350.058594 348.691406 L 370.199219 348.691406 L 370.199219 367.128906 L 350.058594 367.128906 Z M 350.058594 348.691406 " clip-rule="nonzero"/></clipPath></defs><g clip-path="url(#1de4a665f1)"><g clip-path="url(#4b85a5bf0e)"><path fill="#ffffff" d="M 65.441406 65.441406 L 309.558594 65.441406 L 309.558594 309.558594 L 65.441406 309.558594 Z M 65.441406 65.441406 " fill-opacity="1" fill-rule="nonzero"/></g></g><g clip-path="url(#6b0ffd54f2)"><path fill="#ffffff" d="M 4.878906 5.445312 L 25.046875 5.445312 L 25.046875 23.882812 L 4.878906 23.882812 Z M 4.878906 5.445312 " fill-opacity="1" fill-rule="nonzero"/></g><g fill="#000000" fill-opacity="1"><g transform="translate(104.557805, 209.249986)"><g><path d="M 3.03125 -39.8125 L 8.359375 -39.8125 L 8.359375 -21.234375 C 8.503906 -21.554688 8.816406 -22.191406 9.296875 -23.140625 C 9.773438 -24.097656 10.320312 -25.207031 10.9375 -26.46875 C 11.5625 -27.738281 12.234375 -29.078125 12.953125 -30.484375 C 13.671875 -31.898438 14.335938 -33.238281 14.953125 -34.5 C 15.578125 -35.769531 16.128906 -36.878906 16.609375 -37.828125 C 17.085938 -38.785156 17.414062 -39.445312 17.59375 -39.8125 L 20.296875 -39.8125 C 20.109375 -39.488281 19.8125 -38.910156 19.40625 -38.078125 C 19.007812 -37.253906 18.546875 -36.3125 18.015625 -35.25 C 17.484375 -34.1875 16.914062 -33.054688 16.3125 -31.859375 C 15.707031 -30.671875 15.140625 -29.535156 14.609375 -28.453125 C 14.078125 -27.378906 13.597656 -26.425781 13.171875 -25.59375 C 12.753906 -24.769531 12.46875 -24.195312 12.3125 -23.875 L 20.296875 0 L 14.953125 0 C 14.773438 -0.550781 14.53125 -1.285156 14.21875 -2.203125 C 13.90625 -3.117188 13.566406 -4.132812 13.203125 -5.25 C 12.835938 -6.375 12.453125 -7.53125 12.046875 -8.71875 C 11.640625 -9.90625 11.253906 -11.054688 10.890625 -12.171875 C 10.523438 -13.296875 10.1875 -14.316406 9.875 -15.234375 C 9.5625 -16.148438 9.3125 -16.898438 9.125 -17.484375 L 8.359375 -15.953125 L 8.359375 0 L 3.03125 0 Z M 3.03125 -39.8125 "/></g></g></g><g fill="#000000" fill-opacity="1"><g transform="translate(126.501209, 209.249986)"><g><path d="M 3.03125 -31.84375 L 8.359375 -31.84375 L 8.359375 0 L 3.03125 0 Z M 3.03125 -31.84375 "/></g></g></g><g fill="#000000" fill-opacity="1"><g transform="translate(137.885379, 209.249986)"><g><path d="M 3.515625 -28.328125 L 2.203125 -31.84375 L 7.484375 -31.84375 L 15.453125 -10.9375 L 15.453125 -31.84375 L 18.09375 -31.84375 L 18.09375 0 L 14.140625 0 L 6.15625 -21.234375 L 6.15625 0 L 3.515625 0 Z M 3.515625 -28.328125 "/></g></g></g><g fill="#000000" fill-opacity="1"><g transform="translate(159.003847, 209.249986)"><g><path d="M 11.609375 0 C 10.066406 0 8.671875 -0.265625 7.421875 -0.796875 C 6.179688 -1.328125 5.140625 -2.210938 4.296875 -3.453125 C 3.453125 -4.703125 2.800781 -6.34375 2.34375 -8.375 C 1.882812 -10.414062 1.65625 -12.941406 1.65625 -15.953125 C 1.65625 -18.921875 1.882812 -21.421875 2.34375 -23.453125 C 2.800781 -25.492188 3.453125 -27.132812 4.296875 -28.375 C 5.140625 -29.625 6.179688 -30.515625 7.421875 -31.046875 C 8.671875 -31.578125 10.066406 -31.84375 11.609375 -31.84375 C 13.148438 -31.84375 14.539062 -31.578125 15.78125 -31.046875 C 17.03125 -30.515625 18.078125 -29.625 18.921875 -28.375 C 19.765625 -27.132812 20.414062 -25.492188 20.875 -23.453125 C 21.332031 -21.421875 21.5625 -18.921875 21.5625 -15.953125 C 21.5625 -12.941406 21.332031 -10.414062 20.875 -8.375 C 20.414062 -6.34375 19.765625 -4.703125 18.921875 -3.453125 C 18.078125 -2.210938 17.03125 -1.328125 15.78125 -0.796875 C 14.539062 -0.265625 13.148438 0 11.609375 0 Z M 11.609375 -2.640625 C 12.378906 -2.640625 13.046875 -3.003906 13.609375 -3.734375 C 14.179688 -4.472656 14.660156 -5.4375 15.046875 -6.625 C 15.429688 -7.820312 15.710938 -9.1875 15.890625 -10.71875 C 16.078125 -12.257812 16.171875 -13.835938 16.171875 -15.453125 C 16.171875 -17.140625 16.066406 -18.804688 15.859375 -20.453125 C 15.660156 -22.109375 15.367188 -23.585938 14.984375 -24.890625 C 14.597656 -26.191406 14.117188 -27.234375 13.546875 -28.015625 C 12.984375 -28.804688 12.335938 -29.203125 11.609375 -29.203125 C 10.867188 -29.203125 10.210938 -28.804688 9.640625 -28.015625 C 9.078125 -27.234375 8.601562 -26.195312 8.21875 -24.90625 C 7.832031 -23.625 7.539062 -22.175781 7.34375 -20.5625 C 7.144531 -18.957031 7.046875 -17.3125 7.046875 -15.625 C 7.046875 -13.96875 7.132812 -12.359375 7.3125 -10.796875 C 7.5 -9.242188 7.785156 -7.863281 8.171875 -6.65625 C 8.554688 -5.445312 9.03125 -4.472656 9.59375 -3.734375 C 10.164062 -3.003906 10.835938 -2.640625 11.609375 -2.640625 Z M 11.609375 -2.640625 "/></g></g></g><g fill="#000000" fill-opacity="1"><g transform="translate(182.212166, 209.249986)"><g><path d="M 12.65625 0 C 10.5625 0 8.804688 -0.398438 7.390625 -1.203125 C 5.984375 -2.015625 4.859375 -3.242188 4.015625 -4.890625 C 3.171875 -6.546875 2.566406 -8.617188 2.203125 -11.109375 C 1.835938 -13.597656 1.65625 -16.53125 1.65625 -19.90625 C 1.65625 -23.28125 1.835938 -26.210938 2.203125 -28.703125 C 2.566406 -31.203125 3.175781 -33.273438 4.03125 -34.921875 C 4.894531 -36.578125 6.023438 -37.804688 7.421875 -38.609375 C 8.816406 -39.410156 10.5625 -39.8125 12.65625 -39.8125 C 13.53125 -39.8125 14.410156 -39.664062 15.296875 -39.375 L 15.296875 -35.46875 C 14.484375 -36.613281 13.601562 -37.1875 12.65625 -37.1875 C 11.59375 -37.1875 10.65625 -36.539062 9.84375 -35.25 C 9.507812 -34.738281 9.210938 -33.96875 8.953125 -32.9375 C 8.703125 -31.914062 8.492188 -30.71875 8.328125 -29.34375 C 8.160156 -27.96875 8.039062 -26.484375 7.96875 -24.890625 C 7.894531 -23.296875 7.859375 -21.671875 7.859375 -20.015625 C 7.859375 -18.328125 7.894531 -16.664062 7.96875 -15.03125 C 8.039062 -13.40625 8.160156 -11.90625 8.328125 -10.53125 C 8.492188 -9.15625 8.703125 -7.941406 8.953125 -6.890625 C 9.210938 -5.847656 9.507812 -5.070312 9.84375 -4.5625 C 10.65625 -3.28125 11.59375 -2.640625 12.65625 -2.640625 C 13.601562 -2.640625 14.484375 -3.207031 15.296875 -4.34375 L 15.296875 -0.4375 C 14.410156 -0.144531 13.53125 0 12.65625 0 Z M 12.65625 0 "/></g></g></g><g fill="#000000" fill-opacity="1"><g transform="translate(199.150942, 209.249986)"><g><path d="M 3.03125 -31.84375 L 8.359375 -31.84375 L 8.359375 -19.90625 L 13.640625 -19.90625 L 13.640625 -31.84375 L 18.96875 -31.84375 L 18.96875 0 L 13.640625 0 L 13.640625 -17.265625 L 8.359375 -17.265625 L 8.359375 0 L 3.03125 0 Z M 3.03125 -31.84375 "/></g></g></g><g fill="#000000" fill-opacity="1"><g transform="translate(221.149346, 209.249986)"><g><path d="M 5.71875 -27.890625 L 5.0625 -31.84375 L 10.390625 -31.84375 L 15.671875 0 L 10.390625 0 L 9.296875 -6.65625 L 4.84375 -6.65625 L 3.734375 0 L 1.09375 0 Z M 8.859375 -9.296875 L 7.09375 -19.90625 L 5.28125 -9.296875 Z M 8.859375 -9.296875 "/></g></g></g><g fill="#000000" fill-opacity="1"><g transform="translate(237.923133, 209.249986)"><g><path d="M 3.03125 -31.84375 L 8.359375 -31.84375 L 8.359375 0 L 3.03125 0 Z M 3.03125 -31.84375 "/></g></g></g><g fill="#000000" fill-opacity="1"><g transform="translate(249.307303, 209.249986)"><g><path d="M 3.515625 -28.328125 L 2.203125 -31.84375 L 7.484375 -31.84375 L 15.453125 -10.9375 L 15.453125 -31.84375 L 18.09375 -31.84375 L 18.09375 0 L 14.140625 0 L 6.15625 -21.234375 L 6.15625 0 L 3.515625 0 Z M 3.515625 -28.328125 "/></g></g></g><g clip-path="url(#52ca5d9da3)"><path fill="#ffffff" d="M 4.878906 28.328125 L 25.046875 28.328125 L 25.046875 46.765625 L 4.878906 46.765625 Z M 4.878906 28.328125 " fill-opacity="1" fill-rule="nonzero"/></g><g clip-path="url(#f353dda866)"><path fill="#ffffff" d="M 4.878906 51.210938 L 25.046875 51.210938 L 25.046875 69.648438 L 4.878906 69.648438 Z M 4.878906 51.210938 " fill-opacity="1" fill-rule="nonzero"/></g><g clip-path="url(#27acfaae2b)"><path fill="#ffffff" d="M 4.878906 74.09375 L 25.046875 74.09375 L 25.046875 92.53125 L 4.878906 92.53125 Z M 4.878906 74.09375 " fill-opacity="1" fill-rule="nonzero"/></g><g clip-path="url(#1867999eb6)"><path fill="#ffffff" d="M 4.878906 96.976562 L 25.046875 96.976562 L 25.046875 115.414062 L 4.878906 115.414062 Z M 4.878906 96.976562 " fill-opacity="1" fill-rule="nonzero"/></g><g clip-path="url(#cf15206e8c)"><path fill="#ffffff" d="M 4.878906 119.859375 L 25.046875 119.859375 L 25.046875 138.296875 L 4.878906 138.296875 Z M 4.878906 119.859375 " fill-opacity="1" fill-rule="nonzero"/></g><g clip-path="url(#0eb6e6e506)"><path fill="#ffffff" d="M 4.878906 142.742188 L 25.046875 142.742188 L 25.046875 161.183594 L 4.878906 161.183594 Z M 4.878906 142.742188 " fill-opacity="1" fill-rule="nonzero"/></g><g clip-path="url(#4346201b46)"><path fill="#ffffff" d="M 4.878906 165.625 L 25.046875 165.625 L 25.046875 184.066406 L 4.878906 184.066406 Z M 4.878906 165.625 " fill-opacity="1" fill-rule="nonzero"/></g><g clip-path="url(#98bdb01d4b)"><path fill="#ffffff" d="M 4.878906 188.507812 L 25.046875 188.507812 L 25.046875 206.949219 L 4.878906 206.949219 Z M 4.878906 188.507812 " fill-opacity="1" fill-rule="nonzero"/></g><g clip-path="url(#1c3894f7a2)"><path fill="#ffffff" d="M 4.878906 211.390625 L 25.046875 211.390625 L 25.046875 229.832031 L 4.878906 229.832031 Z M 4.878906 211.390625 " fill-opacity="1" fill-rule="nonzero"/></g><g clip-path="url(#36b7550e95)"><path fill="#ffffff" d="M 4.878906 234.273438 L 25.046875 234.273438 L 25.046875 252.714844 L 4.878906 252.714844 Z M 4.878906 234.273438 " fill-opacity="1" fill-rule="nonzero"/></g><g clip-path="url(#784ba31236)"><path fill="#ffffff" d="M 4.878906 257.160156 L 25.046875 257.160156 L 25.046875 275.597656 L 4.878906 275.597656 Z M 4.878906 257.160156 " fill-opacity="1" fill-rule="nonzero"/></g><g clip-path="url(#5456992da3)"><path fill="#ffffff" d="M 4.878906 280.042969 L 25.046875 280.042969 L 25.046875 298.480469 L 4.878906 298.480469 Z M 4.878906 280.042969 " fill-opacity="1" fill-rule="nonzero"/></g><g clip-path="url(#e7893ec3db)"><path fill="#ffffff" d="M 4.878906 302.925781 L 25.046875 302.925781 L 25.046875 321.363281 L 4.878906 321.363281 Z M 4.878906 302.925781 " fill-opacity="1" fill-rule="nonzero"/></g><g clip-path="url(#881f575377)"><path fill="#ffffff" d="M 4.878906 325.808594 L 25.046875 325.808594 L 25.046875 344.246094 L 4.878906 344.246094 Z M 4.878906 325.808594 " fill-opacity="1" fill-rule="nonzero"/></g><g clip-path="url(#1cc66c23db)"><path fill="#ffffff" d="M 4.878906 348.691406 L 25.046875 348.691406 L 25.046875 367.128906 L 4.878906 367.128906 Z M 4.878906 348.691406 " fill-opacity="1" fill-rule="nonzero"/></g><g clip-path="url(#429ee66790)"><path fill="#ffffff" d="M 350.058594 5.445312 L 370.226562 5.445312 L 370.226562 23.882812 L 350.058594 23.882812 Z M 350.058594 5.445312 " fill-opacity="1" fill-rule="nonzero"/></g><g clip-path="url(#d10b077214)"><path fill="#ffffff" d="M 350.058594 28.28125 L 370.226562 28.28125 L 370.226562 46.71875 L 350.058594 46.71875 Z M 350.058594 28.28125 " fill-opacity="1" fill-rule="nonzero"/></g><g clip-path="url(#2da5976ac7)"><path fill="#ffffff" d="M 350.058594 51.21875 L 370.226562 51.21875 L 370.226562 69.65625 L 350.058594 69.65625 Z M 350.058594 51.21875 " fill-opacity="1" fill-rule="nonzero"/></g><g clip-path="url(#e7f980a1a7)"><path fill="#ffffff" d="M 350.058594 74.054688 L 370.226562 74.054688 L 370.226562 92.492188 L 350.058594 92.492188 Z M 350.058594 74.054688 " fill-opacity="1" fill-rule="nonzero"/></g><g clip-path="url(#41cd38b8e8)"><path fill="#ffffff" d="M 350.058594 96.992188 L 370.226562 96.992188 L 370.226562 115.429688 L 350.058594 115.429688 Z M 350.058594 96.992188 " fill-opacity="1" fill-rule="nonzero"/></g><g clip-path="url(#8e65ee4376)"><path fill="#ffffff" d="M 350.058594 119.828125 L 370.226562 119.828125 L 370.226562 138.265625 L 350.058594 138.265625 Z M 350.058594 119.828125 " fill-opacity="1" fill-rule="nonzero"/></g><g clip-path="url(#b8b8446d2c)"><path fill="#ffffff" d="M 350.058594 142.765625 L 370.226562 142.765625 L 370.226562 161.203125 L 350.058594 161.203125 Z M 350.058594 142.765625 " fill-opacity="1" fill-rule="nonzero"/></g><g clip-path="url(#b71075b325)"><path fill="#ffffff" d="M 350.058594 165.597656 L 370.226562 165.597656 L 370.226562 184.035156 L 350.058594 184.035156 Z M 350.058594 165.597656 " fill-opacity="1" fill-rule="nonzero"/></g><g clip-path="url(#837b6331c3)"><path fill="#ffffff" d="M 350.058594 188.535156 L 370.226562 188.535156 L 370.226562 206.976562 L 350.058594 206.976562 Z M 350.058594 188.535156 " fill-opacity="1" fill-rule="nonzero"/></g><g clip-path="url(#e1bfe0ad68)"><path fill="#ffffff" d="M 350.058594 211.371094 L 370.226562 211.371094 L 370.226562 229.808594 L 350.058594 229.808594 Z M 350.058594 211.371094 " fill-opacity="1" fill-rule="nonzero"/></g><g clip-path="url(#60212d7bc3)"><path fill="#ffffff" d="M 350.058594 234.308594 L 370.226562 234.308594 L 370.226562 252.746094 L 350.058594 252.746094 Z M 350.058594 234.308594 " fill-opacity="1" fill-rule="nonzero"/></g><g clip-path="url(#3a52866952)"><path fill="#ffffff" d="M 350.058594 257.144531 L 370.226562 257.144531 L 370.226562 275.582031 L 350.058594 275.582031 Z M 350.058594 257.144531 " fill-opacity="1" fill-rule="nonzero"/></g><g clip-path="url(#3b1f7a3ebb)"><path fill="#ffffff" d="M 350.058594 280.082031 L 370.226562 280.082031 L 370.226562 298.519531 L 350.058594 298.519531 Z M 350.058594 280.082031 " fill-opacity="1" fill-rule="nonzero"/></g><g clip-path="url(#35640fd115)"><path fill="#ffffff" d="M 350.058594 302.917969 L 370.226562 302.917969 L 370.226562 321.355469 L 350.058594 321.355469 Z M 350.058594 302.917969 " fill-opacity="1" fill-rule="nonzero"/></g><g clip-path="url(#a2c2c2a9e6)"><path fill="#ffffff" d="M 350.058594 325.855469 L 370.226562 325.855469 L 370.226562 344.292969 L 350.058594 344.292969 Z M 350.058594 325.855469 " fill-opacity="1" fill-rule="nonzero"/></g><g clip-path="url(#a3ebd65d27)"><path fill="#ffffff" d="M 350.058594 348.691406 L 370.226562 348.691406 L 370.226562 367.128906 L 350.058594 367.128906 Z M 350.058594 348.691406 " fill-opacity="1" fill-rule="nonzero"/></g></svg>