<svg viewBox="0 0 512 512" xmlns="http://www.w3.org/2000/svg">
  <defs>
    <linearGradient id="gold" x1="0" y1="0" x2="1" y2="1">
      <stop offset="0" stop-color="#F4E1AC"/>
      <stop offset="0.55" stop-color="#C9A24A"/>
      <stop offset="1" stop-color="#8A7233"/>
    </linearGradient>
  </defs>
  <rect x="150" y="48" width="84" height="416" rx="12" fill="url(#gold)" stroke="#6f5b29" stroke-width="2"/>
  <g fill="#0E0E10">
    <rect x="166" y="64" width="52" height="30" rx="7"/>
    <rect x="166" y="112" width="52" height="30" rx="7"/>
    <rect x="166" y="160" width="52" height="30" rx="7"/>
    <rect x="166" y="208" width="52" height="30" rx="7"/>
    <rect x="166" y="256" width="52" height="30" rx="7"/>
    <rect x="166" y="304" width="52" height="30" rx="7"/>
    <rect x="166" y="352" width="52" height="30" rx="7"/>
    <rect x="166" y="400" width="52" height="30" rx="7"/>
  </g>
  <path d="M234 256 L356 120 L420 120 L288 266 Z" fill="url(#gold)" stroke="#6f5b29" stroke-width="2" stroke-linejoin="round"/>
  <path d="M288 246 L420 392 L356 392 L234 256 Z" fill="url(#gold)" stroke="#6f5b29" stroke-width="2" stroke-linejoin="round"/>
  <rect x="156" y="58" width="6" height="396" rx="3" fill="#F9ECC8" opacity="0.55"/>
</svg>
