<svg viewBox="0 0 512 512" xmlns="http://www.w3.org/2000/svg">
  <defs>
    <linearGradient id="g2gold" x1="0" y1="0" x2="1" y2="1">
      <stop offset="0" stop-color="#E6CC8A"/>
      <stop offset="0.55" stop-color="#C9A24A"/>
      <stop offset="1" stop-color="#8A7233"/>
    </linearGradient>
  </defs>
  <rect width="512" height="512" fill="#121214"/>
  <g>
    <circle cx="196" cy="256" r="100" fill="none" stroke="url(#g2gold)" stroke-width="34"/>
    <circle cx="196" cy="256" r="26" fill="url(#g2gold)"/>
    <g fill="url(#g2gold)">
      <circle cx="196" cy="186" r="13"/>
      <circle cx="196" cy="326" r="13"/>
      <circle cx="126" cy="256" r="13"/>
      <circle cx="266" cy="256" r="13"/>
    </g>
  </g>
  <g>
    <circle cx="316" cy="256" r="100" fill="none" stroke="#8A7233" stroke-width="34"/>
    <circle cx="316" cy="256" r="100" fill="none" stroke="url(#g2gold)" stroke-width="22"/>
    <circle cx="316" cy="256" r="26" fill="url(#g2gold)"/>
    <g fill="url(#g2gold)">
      <circle cx="316" cy="186" r="13"/>
      <circle cx="316" cy="326" r="13"/>
      <circle cx="386" cy="256" r="13"/>
      <circle cx="246" cy="256" r="13"/>
    </g>
  </g>
  <path d="M196 156 A100 100 0 0 0 196 356" fill="none" stroke="url(#g2gold)" stroke-width="34"/>
  <circle cx="196" cy="186" r="13" fill="url(#g2gold)"/>
  <circle cx="196" cy="326" r="13" fill="url(#g2gold)"/>
  <circle cx="126" cy="256" r="13" fill="url(#g2gold)"/>
</svg>
