<svg viewBox="0 0 512 512" xmlns="http://www.w3.org/2000/svg">
  <defs>
    <linearGradient id="g3gold" x1="0" y1="0" x2="0" y2="1">
      <stop offset="0" stop-color="#E6CC8A"/>
      <stop offset="0.5" stop-color="#C9A24A"/>
      <stop offset="1" stop-color="#8A7233"/>
    </linearGradient>
  </defs>
  <rect width="512" height="512" fill="#0E0E10"/>
  <g fill="none" stroke="url(#g3gold)" stroke-width="10">
    <path d="M120 92 H392 V160"/>
    <path d="M96 132 H416 V172"/>
  </g>
  <path d="M150 150 H362 L392 196 H120 Z" fill="url(#g3gold)"/>
  <g fill="#E6CC8A">
    <circle cx="150" cy="173" r="7"/><circle cx="194" cy="173" r="7"/>
    <circle cx="238" cy="173" r="7"/><circle cx="282" cy="173" r="7"/>
    <circle cx="326" cy="173" r="7"/><circle cx="370" cy="173" r="7"/>
  </g>
  <g fill="url(#g3gold)">
    <rect x="176" y="232" width="44" height="208"/>
    <path d="M220 336 L320 232 L380 232 L260 356 Z"/>
    <path d="M260 320 L380 440 L320 440 L220 352 Z"/>
  </g>
  <rect x="150" y="452" width="212" height="14" fill="url(#g3gold)"/>
</svg>
