<svg viewBox="0 0 512 512" xmlns="http://www.w3.org/2000/svg">
  <defs>
    <linearGradient id="g4gold" x1="0" y1="0" x2="1" y2="1">
      <stop offset="0" stop-color="#E6CC8A"/>
      <stop offset="0.55" stop-color="#C9A24A"/>
      <stop offset="1" stop-color="#8A7233"/>
    </linearGradient>
  </defs>
  <rect width="512" height="512" fill="#151517"/>
  <g transform="rotate(-32 256 256)">
    <rect x="120" y="150" width="150" height="212" rx="56" fill="none" stroke="url(#g4gold)" stroke-width="30"/>
    <g fill="url(#g4gold)">
      <rect x="132" y="170" width="14" height="14" rx="3"/>
      <rect x="132" y="206" width="14" height="14" rx="3"/>
      <rect x="132" y="242" width="14" height="14" rx="3"/>
      <rect x="132" y="278" width="14" height="14" rx="3"/>
      <rect x="132" y="314" width="14" height="14" rx="3"/>
    </g>
  </g>
  <g transform="rotate(-32 256 256)">
    <rect x="242" y="150" width="150" height="212" rx="56" fill="none" stroke="#8A7233" stroke-width="30"/>
    <rect x="242" y="150" width="150" height="212" rx="56" fill="none" stroke="url(#g4gold)" stroke-width="20"/>
    <g fill="url(#g4gold)">
      <rect x="366" y="194" width="14" height="14" rx="3"/>
      <rect x="366" y="230" width="14" height="14" rx="3"/>
      <rect x="366" y="266" width="14" height="14" rx="3"/>
      <rect x="366" y="302" width="14" height="14" rx="3"/>
    </g>
  </g>
  <g transform="rotate(-32 256 256)">
    <path d="M176 150 A56 56 0 0 0 120 206 V306" fill="none" stroke="url(#g4gold)" stroke-width="30"/>
  </g>
</svg>
